<?xml version="1.0" encoding="UTF-8" standalone="no"?>
<!-- Created with Inkscape (http://www.inkscape.org/) -->

<svg
   xmlns:dc="http://purl.org/dc/elements/1.1/"
   xmlns:cc="http://creativecommons.org/ns#"
   xmlns:rdf="http://www.w3.org/1999/02/22-rdf-syntax-ns#"
   xmlns:svg="http://www.w3.org/2000/svg"
   xmlns="http://www.w3.org/2000/svg"
   xmlns:sodipodi="http://sodipodi.sourceforge.net/DTD/sodipodi-0.dtd"
   xmlns:inkscape="http://www.inkscape.org/namespaces/inkscape"
   width="210mm"
   height="297mm"
   viewBox="0 0 210 297"
   version="1.1"
   id="svg8"
   inkscape:version="0.92.1 r15371"
   sodipodi:docname="robot.svg">
  <defs
     id="defs2" />
  <sodipodi:namedview
     id="base"
     pagecolor="#ffffff"
     bordercolor="#666666"
     borderopacity="1.0"
     inkscape:pageopacity="0.0"
     inkscape:pageshadow="2"
     inkscape:zoom="0.70710678"
     inkscape:cx="406.32292"
     inkscape:cy="483.20962"
     inkscape:document-units="mm"
     inkscape:current-layer="layer1"
     showgrid="false"
     inkscape:snap-bbox="true"
     inkscape:snap-bbox-midpoints="true"
     inkscape:snap-bbox-edge-midpoints="false"
     inkscape:window-width="1920"
     inkscape:window-height="1107"
     inkscape:window-x="0"
     inkscape:window-y="31"
     inkscape:window-maximized="1"
     inkscape:measure-start="306.299,229.599"
     inkscape:measure-end="306.299,289.498"
     showguides="false"
     inkscape:bbox-paths="false" />
  <metadata
     id="metadata5">
    <rdf:RDF>
      <cc:Work
         rdf:about="">
        <dc:format>image/svg+xml</dc:format>
        <dc:type
           rdf:resource="http://purl.org/dc/dcmitype/StillImage" />
        <dc:title />
      </cc:Work>
    </rdf:RDF>
  </metadata>
  <g
     inkscape:label="Layer 1"
     inkscape:groupmode="layer"
     id="layer1">
    <g
       id="g4781">
      <rect
         y="-168.46017"
         x="135.72357"
         height="50"
         width="45"
         id="rect4485-6"
         style="opacity:1;fill:none;fill-opacity:1;stroke:#020202;stroke-width:0.42580125;stroke-miterlimit:4;stroke-dasharray:none;stroke-opacity:1" />
      <circle
         r="4"
         cy="-153.17711"
         cx="147.17159"
         id="path4734-2"
         style="opacity:1;fill:none;fill-opacity:1;stroke:#020202;stroke-width:0.1392578;stroke-miterlimit:4;stroke-dasharray:none;stroke-opacity:1" />
      <circle
         r="4"
         cy="-156.73663"
         cx="171.89778"
         id="path4734-0-6"
         style="opacity:1;fill:none;fill-opacity:1;stroke:#020202;stroke-width:0.1392578;stroke-miterlimit:4;stroke-dasharray:none;stroke-opacity:1" />
    </g>
    <path
       style="opacity:1;fill:none;fill-opacity:1;stroke:#020202;stroke-width:0.40618718;stroke-miterlimit:4;stroke-dasharray:none;stroke-opacity:1"
       d="m 106.61468,202.23055 a 13.5,15 0 0 0 -13.500471,-14.9996 13.5,15 0 0 0 -13.499952,14.9996 z"
       id="path4506-6-3"
       inkscape:connector-curvature="0" />
    <path
       style="opacity:1;fill:none;fill-opacity:1;stroke:#020202;stroke-width:0.40618718;stroke-miterlimit:4;stroke-dasharray:none;stroke-opacity:1"
       d="M 142.22,202.76751 A 13.5,15 0 0 0 128.71953,187.7679 13.5,15 0 0 0 115.21958,202.76751 Z"
       id="path4506-6-3-7"
       inkscape:connector-curvature="0" />
    <path
       style="opacity:1;fill:none;fill-opacity:1;stroke:#020202;stroke-width:1.01493454;stroke-miterlimit:4;stroke-dasharray:none;stroke-opacity:1"
       d="m 439.20898,841.5625 v 46 h 41.57422 v 130.7051 a 51.023622,56.692913 0 0 0 -28.34765,50.7109 h 41.57422 v -56.6933 h 17.76367 v 56.6933 h 42.71094 a 51.023622,56.692913 0 0 0 -28.34571,-50.7558 V 887.5625 h 17.07031 v -46 z"
       transform="scale(0.26458333)"
       id="rect4489-3-6-5"
       inkscape:connector-curvature="0" />
    <path
       style="opacity:1;fill:none;fill-opacity:1;stroke:#020202;stroke-width:1.01493454;stroke-miterlimit:4;stroke-dasharray:none;stroke-opacity:1"
       d="m 629.17578,840.85547 v 46 h 17.07031 v 130.70503 a 51.023622,56.692913 0 0 0 -28.34765,50.711 h 41.57422 v -56.6934 h 17.76367 v 56.6934 h 42.71094 a 51.023622,56.692913 0 0 0 -28.34571,-50.7559 V 886.85547 h 41.57422 v -46 z"
       transform="scale(0.26458333)"
       id="rect4489-3-6-5-5"
       inkscape:connector-curvature="0" />
    <path
       style="fill:none;fill-opacity:1;fill-rule:evenodd;stroke:#000000;stroke-width:0.33783996px;stroke-linecap:butt;stroke-linejoin:miter;stroke-opacity:1"
       d="m 81.041609,220.40376 v 15.84813 h 5.000212 v -6.08335 c 0.04063,0.0177 0.09661,0.004 0.174151,-0.0594 8.375298,-2.22727 14.415368,5.27382 18.355468,15.33291 2.91748,7.44831 3.8215,15.57916 1.74873,21.74855 -0.72654,2.16247 -0.9987,4.20138 -2.80861,5.72368 -1.39643,-1.00158 -5.615049,0.32827 -5.89887,3.58582 l 1.749248,1.90016 c 1.439772,-4.83478 9.613062,0.90144 3.072162,2.92952 l -0.0393,2.71148 c 3.95764,-1.00868 6.6378,-3.37704 3.81217,-7.60627 11.99505,-14.04077 3.51189,-52.80151 -20.165179,-51.03099 v -5.00021 z"
       id="path4549-6-2"
       inkscape:connector-curvature="0" />
    <path
       style="fill:none;fill-opacity:1;fill-rule:evenodd;stroke:#000000;stroke-width:0.33783996px;stroke-linecap:butt;stroke-linejoin:miter;stroke-opacity:1"
       d="m 67.0326,220.57775 v 5.00021 c -23.677073,-1.77053 -32.16023,36.99022 -20.165177,51.031 -2.825631,4.22923 -0.145473,6.5976 3.812171,7.60624 l -0.03928,-2.71145 c -6.540903,-2.02808 1.632394,-7.7643 3.072164,-2.92954 l 1.749248,-1.90014 c -0.283823,-3.25757 -4.502949,-4.58742 -5.899382,-3.58584 -1.809914,-1.52228 -2.081556,-3.56119 -2.808097,-5.72368 -2.072767,-6.16938 -1.168744,-14.30023 1.74873,-21.74854 3.940101,-10.05908 9.980164,-17.5607 18.355469,-15.33343 0.07784,0.0639 0.133488,0.0775 0.174149,0.0594 v 6.08386 h 5.099947 v -15.84812 z"
       id="path4549-1"
       inkscape:connector-curvature="0" />
    <g
       id="g4519"
       transform="translate(-181.85019,34.798492)">
      <path
         inkscape:connector-curvature="0"
         id="rect4485-7"
         d="m 268.65933,58.916026 a 3.9687497,4.3467258 0 0 0 -3.96875,4.347021 3.9687497,4.3467258 0 0 0 2.02416,3.786333 l -1.83916,15.41973 h -18.71617 v 50.00005 h 44.99983 V 82.46911 h -18.71617 l -1.83968,-15.422831 a 3.9687497,4.3467258 0 0 0 2.02469,-3.783232 3.9687497,4.3467258 0 0 0 -3.96875,-4.347021 z"
         style="opacity:1;fill:none;fill-opacity:1;stroke:#020202;stroke-width:0.42580125;stroke-miterlimit:4;stroke-dasharray:none;stroke-opacity:1" />
      <circle
         r="4"
         cy="97.752289"
         cx="257.60733"
         id="path4734-09"
         style="opacity:1;fill:none;fill-opacity:1;stroke:#020202;stroke-width:0.1392578;stroke-miterlimit:4;stroke-dasharray:none;stroke-opacity:1" />
      <circle
         r="4"
         cy="93.658226"
         cx="279.12628"
         id="path4734-0-3"
         style="opacity:1;fill:none;fill-opacity:1;stroke:#020202;stroke-width:0.1392578;stroke-miterlimit:4;stroke-dasharray:none;stroke-opacity:1" />
      <path
         sodipodi:nodetypes="ccccccc"
         inkscape:connector-curvature="0"
         id="path4755-6"
         d="m 253.05106,112.77753 21.93844,11.80142 11.34699,-4.48982 c 0.34591,-0.52719 -0.036,-1.41336 -1.31045,-1.32248 -0.55399,-0.0853 -4.50327,3.03495 -10.12221,3.76786 -1.08667,-0.47247 -21.00232,-11.17439 -21.00232,-11.17439 -0.66146,0.14174 -1.01582,0.85044 -0.85045,1.41741 z"
         style="fill:none;fill-rule:evenodd;stroke:#000000;stroke-width:0.17354886px;stroke-linecap:butt;stroke-linejoin:miter;stroke-opacity:1" />
    </g>
    <g
       id="g4514"
       transform="translate(56.874956,48.268877)">
      <g
         id="g4844">
        <path
           style="opacity:1;fill:none;fill-opacity:1;stroke:#020202;stroke-width:1.44969749;stroke-miterlimit:4;stroke-dasharray:none;stroke-opacity:1"
           d="m 387.66602,114 v 81.95508 H 293.17773 V 479.41992 H 557.74414 V 195.95508 H 463.25586 V 114 Z"
           transform="scale(0.26458333)"
           id="rect4487"
           inkscape:connector-curvature="0" />
        <rect
           style="opacity:1;fill:none;fill-opacity:1;stroke:#020202;stroke-width:0.62975323;stroke-miterlimit:4;stroke-dasharray:none;stroke-opacity:1"
           id="rect4514"
           width="25"
           height="25"
           x="100.06983"
           y="76.846397" />
      </g>
      <circle
         r="2"
         cy="41.004475"
         cx="112.56988"
         id="path4527"
         style="opacity:1;fill:none;fill-opacity:1;stroke:#0000ff;stroke-width:0.40000001;stroke-miterlimit:4;stroke-dasharray:none;stroke-opacity:0.39215686" />
    </g>
  </g>
</svg>
